<svg width="64" height="65" viewBox="0 0 64 65" fill="none" xmlns="http://www.w3.org/2000/svg">
<path opacity="0.4" d="M52.7731 11.7535C44.8797 3.88685 32.0797 3.88685 24.2397 11.7535C18.7197 17.2202 17.0664 25.0868 19.1997 32.0202L6.66641 44.5535C5.78641 45.4602 5.17307 47.2468 5.35974 48.5268L6.15974 54.3402C6.45307 56.2602 8.23974 58.0735 10.1597 58.3402L15.9731 59.1402C17.2531 59.3268 19.0397 58.7402 19.9464 57.8068L22.1331 55.6202C22.6664 55.1135 22.6664 54.2602 22.1331 53.7268L16.9597 48.5535C16.1864 47.7802 16.1864 46.5002 16.9597 45.7268C17.7331 44.9535 19.0131 44.9535 19.7864 45.7268L24.9864 50.9268C25.4931 51.4335 26.3464 51.4335 26.8531 50.9268L32.5064 45.3002C39.4131 47.4602 47.2797 45.7802 52.7731 40.3135C60.6397 32.4468 60.6397 19.6202 52.7731 11.7535ZM38.6664 32.5002C34.9864 32.5002 31.9997 29.5135 31.9997 25.8335C31.9997 22.1535 34.9864 19.1668 38.6664 19.1668C42.3464 19.1668 45.3331 22.1535 45.3331 25.8335C45.3331 29.5135 42.3464 32.5002 38.6664 32.5002Z" fill="#292D32"/>
<path d="M38.6667 32.4998C42.3486 32.4998 45.3333 29.5151 45.3333 25.8332C45.3333 22.1513 42.3486 19.1665 38.6667 19.1665C34.9848 19.1665 32 22.1513 32 25.8332C32 29.5151 34.9848 32.4998 38.6667 32.4998Z" fill="#8726E1"/>
</svg>
