<svg width="175" height="40" viewBox="0 0 175 40" fill="none" xmlns="http://www.w3.org/2000/svg">
<g clip-path="url(#clip0_336_2877)">
<path d="M1.10742 19.4463H33.292V39.0155H1.10742V19.4463Z" fill="white"/>
<path d="M3.19922 34.4612V24.0612C4.6146 24.0612 5.7223 22.9535 5.7223 21.5381H28.6761C28.6761 22.9535 29.7838 24.0612 31.1992 24.0612V34.4612C29.7838 34.4612 28.6761 35.5689 28.6761 36.9842H5.7223C5.7223 35.5689 4.55306 34.4612 3.19922 34.4612Z" fill="#D7D3DA"/>
<path d="M17.1683 34.5846C20.1251 34.5846 22.5221 32.1876 22.5221 29.2308C22.5221 26.274 20.1251 23.877 17.1683 23.877C14.2115 23.877 11.8145 26.274 11.8145 29.2308C11.8145 32.1876 14.2115 34.5846 17.1683 34.5846Z" fill="white"/>
<path d="M27.6312 30.5846C28.3789 30.5846 28.985 29.9785 28.985 29.2308C28.985 28.4831 28.3789 27.877 27.6312 27.877C26.8835 27.877 26.2773 28.4831 26.2773 29.2308C26.2773 29.9785 26.8835 30.5846 27.6312 30.5846Z" fill="#361951"/>
<path d="M6.76986 30.5846C7.51757 30.5846 8.12371 29.9785 8.12371 29.2308C8.12371 28.4831 7.51757 27.877 6.76986 27.877C6.02215 27.877 5.41602 28.4831 5.41602 29.2308C5.41602 29.9785 6.02215 30.5846 6.76986 30.5846Z" fill="#361951"/>
<path d="M26.8933 24.8001L22.2779 19.6309L19.9395 21.2924L25.1087 26.0924L26.8933 24.8001Z" fill="white"/>
<path d="M14.6309 15.5361L18.2994 12.8381L22.9298 19.1342L19.2612 21.8322L14.6309 15.5361Z" fill="white"/>
<path d="M32.8003 16.9231L22.4618 18.4615L18.7695 13.4769L23.3234 4.06152L32.8003 16.9231Z" fill="#8726E1"/>
<path d="M23.8146 1.5388C22.9531 2.15418 22.7685 3.38495 23.3838 4.18495L32.6762 16.8003C33.2915 17.6619 34.5223 17.8465 35.3223 17.2311C36.1838 16.6157 36.3685 15.385 35.7531 14.585L26.5223 1.90803C25.9069 1.04649 24.6762 0.861874 23.8146 1.5388ZM28.9223 5.16957L33.4146 11.2619C34.7069 9.90803 34.8915 7.81572 33.7223 6.3388C32.6146 4.80034 30.5223 4.36957 28.9223 5.16957Z" fill="white"/>
<path d="M9.72293 4.73837L9.046 3.75376C8.67677 3.99991 8.36908 4.24606 7.99985 4.49222L8.73831 5.47683C9.046 5.23068 9.3537 4.98453 9.72293 4.73837ZM7.81523 6.21529L7.01523 5.29222C6.70754 5.59991 6.39985 5.84606 6.09216 6.15376L6.9537 7.01529C7.26139 6.76914 7.56908 6.52299 7.81523 6.21529ZM11.7537 3.5076L11.1998 2.46145C10.8306 2.64606 10.4614 2.83068 10.0922 3.07683L10.7075 4.12299C11.0768 3.93837 11.3845 3.69222 11.7537 3.5076ZM18.5845 1.59991L18.4614 0.369141C18.0306 0.430679 17.5998 0.430679 17.2306 0.492218L17.4152 1.72299C17.7845 1.66145 18.1537 1.59991 18.5845 1.59991ZM13.9075 2.58453L13.5383 1.41529C13.1691 1.53837 12.7383 1.72299 12.3691 1.9076L12.8614 3.01529C13.1691 2.89222 13.5383 2.7076 13.9075 2.58453ZM16.1845 1.9076L15.9383 0.676833C15.5075 0.738371 15.1383 0.861448 14.7075 0.984525L15.0768 2.15376C15.446 2.09222 15.8152 2.03068 16.1845 1.9076ZM4.73831 9.84606L3.69216 9.16914C3.50754 9.53837 3.26139 9.84606 3.07677 10.2153L4.12293 10.8307C4.30754 10.523 4.5537 10.1538 4.73831 9.84606ZM6.1537 7.93837L5.23062 7.13837C4.98446 7.44606 4.67677 7.81529 4.43062 8.12299L5.41523 8.86145L6.1537 7.93837ZM2.03062 16.4307L0.79985 16.1845C0.738311 16.6153 0.676773 17.0461 0.615234 17.4153L1.846 17.5999C1.90754 17.1691 1.96908 16.7999 2.03062 16.4307ZM2.646 14.0922L1.47677 13.723C1.3537 14.0922 1.23062 14.523 1.10754 14.9538L2.27677 15.2614C2.39985 14.8922 2.52293 14.4614 2.646 14.0922ZM3.56908 11.8768L2.46139 11.3845C2.27677 11.7538 2.09216 12.123 1.96908 12.5538L3.07677 12.9845C3.26139 12.6153 3.38446 12.2461 3.56908 11.8768Z" fill="#361951"/>
<path d="M34.2344 0.436523L35.3566 0.941789L34.2198 3.46691L33.0975 2.96164L34.2344 0.436523Z" fill="#361951"/>
<path d="M37.4355 4.94629L35.4649 6.20529L34.8023 5.16812L36.7729 3.90912L37.4355 4.94629Z" fill="#361951"/>
<path d="M36.7012 8.73633L36.7137 7.50568L39.4826 7.53376L39.4701 8.76441L36.7012 8.73633Z" fill="#361951"/>
<path d="M34.1537 11.3228C35.323 9.78435 35.3845 7.56897 34.2153 5.96897C33.046 4.36897 30.9537 3.75358 29.1076 4.43051L27.0153 1.5382C26.2153 0.430506 24.6153 0.184352 23.5076 0.984352C22.523 1.66128 22.2153 2.95358 22.7076 3.99974L18.7691 12.2459L18.4614 11.9382L13.7845 15.3844L16.3076 18.8305H0.492188V39.6305H33.9076V18.8305H24.123L32.6153 17.5997C33.4768 18.3382 34.7691 18.3997 35.7537 17.7228C36.8614 16.9228 37.1076 15.3228 36.3076 14.2151L34.1537 11.3228ZM33.2306 6.70743C34.0306 7.75358 34.0306 9.16897 33.4153 10.2767L29.9076 5.47666C31.1383 5.16897 32.4306 5.59974 33.2306 6.70743ZM15.5076 15.6305L18.2153 13.6613L22.0922 18.9536L19.3845 20.9228L15.5076 15.6305ZM22.1537 20.4305L25.9691 24.7382L25.1691 25.3536L20.8614 21.4151L22.1537 20.4305ZM32.6768 20.0613V38.3997H1.72296V20.0613H17.2306L19.1383 22.6459L19.8768 22.092L25.1076 26.892L27.8153 24.8613L23.5076 20.0613H32.6768ZM22.7691 17.7844L19.5076 13.3536L23.446 5.23051L31.7537 16.492L22.7691 17.7844ZM35.0153 16.7382C34.4614 17.169 33.5999 17.0459 33.2306 16.492L23.9383 3.81512C23.5076 3.26128 23.6306 2.39974 24.246 2.03051C24.7999 1.59974 25.6614 1.72281 26.0306 2.27666L35.323 14.892C35.6922 15.5074 35.5691 16.3074 35.0153 16.7382Z" fill="#361951"/>
<path d="M14.68 34V31.53H14.1V30.79H14.68V30.07H14.1V29.33H14.68V26.86H16.25L17.03 29.33H17.94V26.86H19.05V29.33H19.62V30.07H19.05V30.79H19.62V31.53H19.05V34H17.47L16.67 31.53H15.79V34H14.68ZM15.79 30.79H16.45L16.23 30.07H15.77L15.79 30.79ZM17.97 32.44H18.02L17.98 31.53H17.71L17.97 32.44ZM15.75 29.33H16.03L15.74 28.37H15.7L15.75 29.33ZM17.5 30.79H17.96L17.94 30.07H17.27L17.5 30.79Z" fill="#361951"/>
</g>
<path d="M56.312 34L51.368 26.944L49.256 29.272V34H45.944V16.984H49.256V24.688L56.072 16.984H60.416L53.672 24.4L60.464 34H56.312ZM63.8836 25.48C63.8836 29.32 66.5716 31.144 69.1876 31.144C71.8276 31.144 74.5156 29.32 74.5156 25.48C74.5156 21.64 71.8276 19.816 69.1876 19.816C66.5716 19.816 63.8836 21.64 63.8836 25.48ZM60.4516 25.504C60.4516 20.008 64.5796 16.624 69.1876 16.624C73.8196 16.624 77.9476 20.008 77.9476 25.504C77.9476 30.976 73.8196 34.36 69.1876 34.36C64.5796 34.36 60.4516 30.976 60.4516 25.504ZM92.9017 20.128H87.5257V34H84.1897V20.128H78.8137V16.984H92.9017V20.128ZM97.2118 25.48C97.2118 29.32 99.8997 31.144 102.516 31.144C105.156 31.144 107.844 29.32 107.844 25.48C107.844 21.64 105.156 19.816 102.516 19.816C99.8997 19.816 97.2118 21.64 97.2118 25.48ZM93.7798 25.504C93.7798 20.008 97.9078 16.624 102.516 16.624C107.148 16.624 111.276 20.008 111.276 25.504C111.276 30.976 107.148 34.36 102.516 34.36C97.9078 34.36 93.7798 30.976 93.7798 25.504ZM114.147 16.984H120.267C123.579 16.984 125.451 18.928 125.451 21.568C125.451 23.32 124.395 24.736 122.979 25.216C124.635 25.624 125.979 27.136 125.979 29.248C125.979 32.008 123.915 34 120.723 34H114.147V16.984ZM117.411 24.016H119.763C121.275 24.016 122.187 23.176 122.187 21.88C122.187 20.584 121.347 19.768 119.739 19.768H117.411V24.016ZM117.411 31.24H120.099C121.707 31.24 122.667 30.4 122.667 29.032C122.667 27.688 121.803 26.752 120.147 26.752H117.411V31.24ZM139.941 34L138.525 30.112H131.613L130.197 34H126.693L133.221 16.984H137.061L143.541 34H139.941ZM135.069 20.656L132.717 27.088H137.421L135.069 20.656ZM157.072 21.04L154.096 21.952C153.928 21.016 153.16 19.552 151 19.552C149.392 19.552 148.336 20.584 148.336 21.712C148.336 22.648 148.936 23.392 150.184 23.632L152.56 24.088C155.656 24.688 157.312 26.704 157.312 29.104C157.312 31.72 155.128 34.36 151.168 34.36C146.656 34.36 144.664 31.456 144.4 29.032L147.472 28.216C147.616 29.896 148.792 31.408 151.192 31.408C152.968 31.408 153.952 30.52 153.952 29.32C153.952 28.336 153.208 27.568 151.888 27.304L149.512 26.824C146.8 26.272 145.048 24.52 145.048 21.952C145.048 18.928 147.76 16.624 150.976 16.624C155.104 16.624 156.688 19.12 157.072 21.04ZM170.476 34L165.532 26.944L163.42 29.272V34H160.108V16.984H163.42V24.688L170.236 16.984H174.58L167.836 24.4L174.628 34H170.476Z" fill="#8726E1"/>
<defs>
<clipPath id="clip0_336_2877">
<rect width="40" height="40" fill="white"/>
</clipPath>
</defs>
</svg>
