<svg width="40" height="40" viewBox="0 0 40 40" fill="none" xmlns="http://www.w3.org/2000/svg">
<path d="M19.4616 3.40234C28.889 3.40234 36.5567 11.0726 36.5567 20.5C36.5567 29.9274 28.889 37.5977 19.4616 37.5977C10.0316 37.5977 2.36133 29.9274 2.36133 20.5C2.36133 11.0726 10.0316 3.40234 19.4616 3.40234ZM31.6439 4.69643C32.0185 4.45714 32.5194 4.5719 32.7587 4.94645C32.9979 5.32101 32.8883 5.81872 32.5137 6.05801C32.1391 6.29728 31.6363 6.19079 31.3971 5.81624C31.1578 5.44168 31.2693 4.9357 31.6439 4.69643ZM29.9064 3.7449C30.1449 3.5926 30.4637 3.66564 30.616 3.90403C30.7683 4.14243 30.6985 4.45921 30.46 4.61151C30.2216 4.7638 29.9016 4.69603 29.7494 4.45763C29.5971 4.21924 29.668 3.89719 29.9064 3.7449ZM32.0146 35.5215C32.3891 35.2822 32.8901 35.3969 33.1293 35.7715C33.3686 36.146 33.2589 36.6437 32.8843 36.883C32.5098 37.1223 32.007 37.0158 31.7678 36.6413C31.5285 36.2667 31.64 35.7607 32.0146 35.5215ZM4.24998 34.4274C4.56459 34.2264 4.98531 34.3228 5.18628 34.6374C5.38724 34.952 5.29513 35.37 4.98051 35.571C4.66592 35.7719 4.24365 35.6825 4.04269 35.3679C3.84173 35.0533 3.93539 34.6283 4.24998 34.4274Z" fill="#D6DCE8"/>
<path d="M37.7151 17.9322L36.7018 20.519L31.4156 34.0183L26.1094 31.9556L31.3684 18.5668L32.431 15.8653C33.8703 12.1747 39.1588 14.2373 37.7151 17.9322Z" fill="#F1F3F9"/>
<path d="M37.7158 17.9322L36.7025 20.519C35.1304 19.1617 33.3557 18.4932 31.3691 18.5668L32.4317 15.8653C33.871 12.1747 39.1595 14.2373 37.7158 17.9322Z" fill="url(#paint0_linear_57_902)"/>
<path d="M37.0483 19.6385L37.7164 17.9322C39.1602 14.2373 33.8717 12.1747 32.4324 15.8653L31.7207 17.6768C33.741 17.4865 35.5103 18.1632 37.0483 19.6385Z" fill="url(#paint1_linear_57_902)"/>
<path d="M31.417 34.0177C31.2893 34.3465 31.0932 34.6446 30.8432 34.895L29.1281 36.616L26.9874 38.7637C26.6935 39.0582 26.1891 38.8622 26.171 38.4466L26.0416 35.417L25.938 32.9895C25.9226 32.636 25.9792 32.2837 26.1069 31.955C26.7061 30.4125 32.0161 32.4753 31.417 34.0177Z" fill="url(#paint2_linear_57_902)"/>
<path d="M26.1108 31.9556L26.084 32.0174C26.0929 31.9955 26.0974 31.9778 26.1064 31.9556L26.1108 31.9556Z" fill="url(#paint3_linear_57_902)"/>
<path d="M29.1261 36.6162L26.9849 38.7629C26.6938 39.0561 26.1902 38.86 26.1708 38.4476L26.043 35.4167C26.5966 35.2847 27.1982 35.3116 27.7723 35.534C28.3464 35.7563 28.8089 36.1453 29.1261 36.6162Z" fill="url(#paint4_linear_57_902)"/>
<path d="M23.8503 39.0207H21.9874C21.742 39.0207 21.543 38.8218 21.543 38.5763C21.543 38.3308 21.742 38.1318 21.9874 38.1318H23.8503C24.0956 38.1318 24.2947 38.3308 24.2947 38.5763C24.2947 38.8218 24.0956 39.0207 23.8503 39.0207Z" fill="#A0A8BA"/>
<path d="M18.8386 39.021H13.7261C12.4341 39.021 11.3829 37.9698 11.3829 36.6778C11.3829 35.3857 12.4341 34.3345 13.7261 34.3345H19.6138C20.3994 34.3345 21.0383 33.6955 21.0383 32.91C21.0383 32.1246 20.3994 31.4856 19.6138 31.4856H8.44249C8.19712 31.4856 7.99805 31.2866 7.99805 31.0411C7.99805 30.7956 8.19712 30.5967 8.44249 30.5967H19.6138C20.8893 30.5967 21.9272 31.6344 21.9272 32.91C21.9272 34.1857 20.8893 35.2234 19.6138 35.2234H13.7261C12.9243 35.2234 12.2718 35.8759 12.2718 36.6778C12.2718 37.4798 12.9243 38.1321 13.7261 38.1321H18.8386C19.084 38.1321 19.2831 38.3311 19.2831 38.5766C19.2831 38.8221 19.084 39.021 18.8386 39.021Z" fill="#A0A8BA"/>
<path d="M5.77322 31.4856H4.47374C4.22837 31.4856 4.0293 31.2866 4.0293 31.0411C4.0293 30.7956 4.22837 30.5967 4.47374 30.5967H5.77322C6.01859 30.5967 6.21767 30.7956 6.21767 31.0411C6.21767 31.2866 6.01859 31.4856 5.77322 31.4856Z" fill="#A0A8BA"/>
<path d="M22.4538 4.17108L27.7008 19.8349C28.1282 21.1109 27.4403 22.4917 26.1643 22.9191L10.497 28.1672C9.22108 28.5946 7.84023 27.9067 7.41282 26.6308L2.16589 10.9669C1.73849 9.69098 2.42637 8.31013 3.70233 7.88272L19.3696 2.63464C20.6456 2.20724 22.0264 2.89512 22.4538 4.17108Z" fill="url(#paint5_linear_57_902)"/>
<path d="M6.34662 5.47923L7.26098 8.2089C7.43796 8.73723 7.15313 9.30899 6.6248 9.48596C6.09647 9.66294 5.52471 9.37811 5.34774 8.84978L4.43338 6.12011C4.2564 5.59178 4.54123 5.02002 5.06956 4.84304C5.59789 4.66607 6.16965 4.9509 6.34662 5.47923Z" fill="url(#paint6_linear_57_902)"/>
<path d="M10.1396 4.20872L11.054 6.93839C11.2309 7.46672 10.9461 8.03848 10.4178 8.21546C9.88944 8.39243 9.31768 8.1076 9.1407 7.57927L8.22634 4.8496C8.04937 4.32127 8.3342 3.74951 8.86253 3.57254C9.39086 3.39556 9.96262 3.68039 10.1396 4.20872Z" fill="url(#paint7_linear_57_902)"/>
<path d="M13.9326 2.93821L14.8469 5.66788C15.0239 6.19621 14.7391 6.76797 14.2107 6.94495C13.6824 7.12192 13.1106 6.83709 12.9337 6.30877L12.0193 3.57909C11.8423 3.05076 12.1272 2.479 12.6555 2.30203C13.1838 2.12505 13.7556 2.40988 13.9326 2.93821Z" fill="url(#paint8_linear_57_902)"/>
<path d="M18.0039 5.67491C17.8967 5.7117 17.7895 5.72696 17.6823 5.72696C17.2595 5.72696 16.8675 5.46057 16.7265 5.03774L15.8106 2.30853C15.633 1.7816 15.9179 1.20874 16.4478 1.0312C16.555 0.99441 16.6622 0.979004 16.7694 0.979004C17.1891 0.979004 17.5842 1.24554 17.7251 1.66822L18.638 4.39758C18.8156 4.9275 18.5308 5.49722 18.0039 5.67491Z" fill="url(#paint9_linear_57_902)"/>
<path d="M15.0568 21.7269C18.2001 21.7269 20.7483 19.1787 20.7483 16.0353C20.7483 12.8919 18.2001 10.3438 15.0568 10.3438C11.9134 10.3438 9.36523 12.8919 9.36523 16.0353C9.36523 19.1787 11.9134 21.7269 15.0568 21.7269Z" fill="url(#paint10_linear_57_902)"/>
<path d="M17.5329 18.5047C17.2043 18.8333 16.6749 18.8333 16.3464 18.5048L15.1812 17.3396L14.0161 18.5047C13.6875 18.8332 13.1581 18.8333 12.8296 18.5048C12.5011 18.1762 12.4987 17.6444 12.8273 17.3159L13.9924 16.1508L12.8296 14.988C12.5011 14.6595 12.4987 14.1277 12.8273 13.7991C13.154 13.4724 13.6892 13.4698 14.0185 13.7991L15.1813 14.9619L16.3441 13.7991C16.6726 13.4706 17.2067 13.4706 17.5352 13.7991C17.8658 14.1297 17.8602 14.6606 17.5329 14.9879L16.3701 16.1507L17.5353 17.3159C17.8638 17.6444 17.8613 18.1763 17.5329 18.5047Z" fill="url(#paint11_linear_57_902)"/>
<path d="M5.80182 35.8321C6.04023 35.6798 6.35905 35.7529 6.51134 35.9913C6.66363 36.2297 6.59383 36.5464 6.35541 36.6987C6.11702 36.851 5.79702 36.7833 5.64473 36.5449C5.49244 36.3065 5.56342 35.9844 5.80182 35.8321Z" fill="#D6DCE8"/>
<defs>
<linearGradient id="paint0_linear_57_902" x1="26.5027" y1="17.1733" x2="38.7161" y2="17.2375" gradientUnits="userSpaceOnUse">
<stop stop-color="#AAB2C5"/>
<stop offset="1" stop-color="#D6DCE8"/>
</linearGradient>
<linearGradient id="paint1_linear_57_902" x1="27.1083" y1="16.7353" x2="38.6797" y2="16.7961" gradientUnits="userSpaceOnUse">
<stop stop-color="#989FB0"/>
<stop offset="1" stop-color="#AAB2C5"/>
</linearGradient>
<linearGradient id="paint2_linear_57_902" x1="25.1931" y1="34.3257" x2="30.503" y2="36.3885" gradientUnits="userSpaceOnUse">
<stop stop-color="#AAB2C5"/>
<stop offset="1" stop-color="#D6DCE8"/>
</linearGradient>
<linearGradient id="paint3_linear_57_902" x1="26.0861" y1="31.9882" x2="26.1127" y2="31.9883" gradientUnits="userSpaceOnUse">
<stop stop-color="#D6DCE8"/>
<stop offset="1" stop-color="#F1F3F9"/>
</linearGradient>
<linearGradient id="paint4_linear_57_902" x1="25.583" y1="36.6039" x2="28.6669" y2="37.802" gradientUnits="userSpaceOnUse">
<stop stop-color="#989FB0"/>
<stop offset="1" stop-color="#AAB2C5"/>
</linearGradient>
<linearGradient id="paint5_linear_57_902" x1="2.03903" y1="15.401" x2="27.8275" y2="15.401" gradientUnits="userSpaceOnUse">
<stop stop-color="#D6DCE8"/>
<stop offset="1" stop-color="#F1F3F9"/>
</linearGradient>
<linearGradient id="paint6_linear_57_902" x1="4.38092" y1="7.16449" x2="7.31336" y2="7.16449" gradientUnits="userSpaceOnUse">
<stop stop-color="#989FB0"/>
<stop offset="1" stop-color="#AAB2C5"/>
</linearGradient>
<linearGradient id="paint7_linear_57_902" x1="8.17368" y1="5.89413" x2="11.1064" y2="5.89413" gradientUnits="userSpaceOnUse">
<stop stop-color="#989FB0"/>
<stop offset="1" stop-color="#AAB2C5"/>
</linearGradient>
<linearGradient id="paint8_linear_57_902" x1="11.9667" y1="4.62348" x2="14.8995" y2="4.62348" gradientUnits="userSpaceOnUse">
<stop stop-color="#989FB0"/>
<stop offset="1" stop-color="#AAB2C5"/>
</linearGradient>
<linearGradient id="paint9_linear_57_902" x1="15.7577" y1="3.35289" x2="18.6907" y2="3.35289" gradientUnits="userSpaceOnUse">
<stop stop-color="#989FB0"/>
<stop offset="1" stop-color="#AAB2C5"/>
</linearGradient>
<linearGradient id="paint10_linear_57_902" x1="9.36494" y1="16.0353" x2="20.7483" y2="16.0353" gradientUnits="userSpaceOnUse">
<stop stop-color="#989FB0"/>
<stop offset="1" stop-color="#AAB2C5"/>
</linearGradient>
<linearGradient id="paint11_linear_57_902" x1="12.5819" y1="16.152" x2="17.7807" y2="16.152" gradientUnits="userSpaceOnUse">
<stop stop-color="#D6DCE8"/>
<stop offset="1" stop-color="#F1F3F9"/>
</linearGradient>
</defs>
</svg>
