<svg width="40" height="40" viewBox="0 0 40 40" fill="none" xmlns="http://www.w3.org/2000/svg">
<rect width="40" height="40" rx="20" fill="#8726E1" fill-opacity="0.1"/>
<path d="M20.0206 10.9102C16.7106 10.9102 14.0206 13.6002 14.0206 16.9102V19.8002C14.0206 20.4102 13.7606 21.3402 13.4506 21.8602L12.3006 23.7702C11.5906 24.9502 12.0806 26.2602 13.3806 26.7002C17.6906 28.1402 22.3406 28.1402 26.6506 26.7002C27.8606 26.3002 28.3906 24.8702 27.7306 23.7702L26.5806 21.8602C26.2806 21.3402 26.0206 20.4102 26.0206 19.8002V16.9102C26.0206 13.6102 23.3206 10.9102 20.0206 10.9102Z" stroke="#8726E1" stroke-miterlimit="10" stroke-linecap="round"/>
<path d="M21.8699 11.1999C21.5599 11.1099 21.2399 11.0399 20.9099 10.9999C19.9499 10.8799 19.0299 10.9499 18.1699 11.1999C18.4599 10.4599 19.1799 9.93994 20.0199 9.93994C20.8599 9.93994 21.5799 10.4599 21.8699 11.1999Z" stroke="#8726E1" stroke-miterlimit="10" stroke-linecap="round" stroke-linejoin="round"/>
<path d="M23.0195 27.0601C23.0195 28.7101 21.6695 30.0601 20.0195 30.0601C19.1995 30.0601 18.4395 29.7201 17.8995 29.1801C17.3595 28.6401 17.0195 27.8801 17.0195 27.0601" stroke="#8726E1" stroke-miterlimit="10"/>
<g clip-path="url(#clip0_267_4537)">
<rect x="20" y="4" width="16" height="16" rx="8" fill="#920E0E"/>
<path d="M27.224 15H26.456V11.344H25.2V10.792C25.92 10.776 26.416 10.376 26.536 9.816H27.224V15ZM28.9874 11.68L28.2034 11.584C28.1954 11.512 28.1954 11.44 28.1954 11.376C28.1954 10.488 28.8514 9.696 29.9874 9.696C31.0994 9.696 31.7394 10.424 31.7394 11.288C31.7394 11.968 31.3554 12.512 30.7634 12.888L29.7394 13.544C29.4434 13.736 29.1794 13.952 29.1074 14.272H31.7714V15H28.1394C28.1554 14.152 28.4914 13.504 29.3714 12.936L30.2354 12.376C30.7234 12.064 30.9474 11.696 30.9474 11.296C30.9474 10.824 30.6274 10.384 29.9714 10.384C29.2914 10.384 28.9714 10.856 28.9714 11.448C28.9714 11.52 28.9794 11.6 28.9874 11.68Z" fill="white"/>
</g>
<defs>
<clipPath id="clip0_267_4537">
<rect x="20" y="4" width="16" height="16" rx="8" fill="white"/>
</clipPath>
</defs>
</svg>
